<svg width="23" height="23" viewBox="0 0 23 23" fill="none" xmlns="http://www.w3.org/2000/svg">
<path fill-rule="evenodd" clip-rule="evenodd" d="M11.0079 0C4.94394 0 0 4.93694 0 10.9999C0 17.0628 4.94494 22.0057 11.0079 22.0057C17.0708 22.0057 22.0057 17.0628 22.0057 10.9999C22.0057 4.93694 17.0708 0 11.0079 0ZM11.0079 1.99997C12.1902 1.998 13.3613 2.22945 14.454 2.68106C15.5467 3.13268 16.5395 3.79556 17.3754 4.63169C18.2114 5.46783 18.8741 6.46077 19.3254 7.55357C19.7768 8.64637 20.008 9.81752 20.0057 10.9999C20.0081 12.1825 19.7771 13.354 19.3258 14.4472C18.8746 15.5404 18.212 16.5338 17.3761 17.3704C16.5402 18.2071 15.5474 18.8705 14.4546 19.3227C13.3618 19.775 12.1905 20.0071 11.0079 20.0057C9.82469 20.0072 8.65285 19.7753 7.55944 19.3232C6.46603 18.8712 5.47253 18.2079 4.6358 17.3713C3.79908 16.5348 3.13558 15.5414 2.68329 14.4481C2.23099 13.3548 1.99879 12.183 1.99997 10.9999C1.99997 6.01792 6.02592 1.99997 11.0079 1.99997ZM10.9919 3.98595C10.8597 3.98725 10.7291 4.01473 10.6076 4.06682C10.4861 4.11891 10.3762 4.19457 10.2841 4.28942C10.192 4.38427 10.1197 4.49644 10.0712 4.61942C10.0228 4.74241 9.99922 4.87378 10.0019 5.00594V10.9999C10.0024 11.1315 10.0289 11.2616 10.0799 11.383C10.1309 11.5043 10.2053 11.6143 10.2989 11.7069L14.2988 15.7088C14.3913 15.804 14.5019 15.8798 14.624 15.9319C14.7462 15.9839 14.8775 16.0111 15.0102 16.0119C15.143 16.0126 15.2746 15.987 15.3973 15.9363C15.52 15.8857 15.6315 15.8111 15.7251 15.717C15.8187 15.6229 15.8926 15.511 15.9425 15.388C15.9925 15.265 16.0174 15.1333 16.0159 15.0005C16.0144 14.8677 15.9864 14.7366 15.9337 14.6148C15.881 14.4929 15.8045 14.3828 15.7088 14.2908L12.0038 10.5859V5.00594C12.0065 4.87193 11.9823 4.73874 11.9325 4.6143C11.8827 4.48986 11.8083 4.3767 11.7139 4.28155C11.6195 4.1864 11.507 4.1112 11.3829 4.06042C11.2589 4.00964 11.1259 3.98431 10.9919 3.98595Z" fill="black"/>
</svg>
